<svg width="74" height="74" viewBox="0 0 74 74" fill="none" xmlns="http://www.w3.org/2000/svg">
<path d="M48.5625 28.2125C40.7 28.2125 33.0687 27.2875 26.3625 25.4375C25.9 28.4437 25.4375 31.6813 25.4375 34.9188C25.4375 55.2688 35.8438 71.6875 48.5625 71.6875C61.2812 71.6875 71.6875 55.2688 71.6875 34.9188C71.6875 31.6813 71.4563 28.4437 70.7625 25.4375C64.0563 27.2875 56.425 28.2125 48.5625 28.2125Z" stroke="#6B1D3A" stroke-width="2" stroke-miterlimit="10" stroke-linecap="round" stroke-linejoin="round"/>
<path d="M48.5625 55.7313C45.0938 55.7313 41.8563 54.8062 39.3125 53.1875C39.775 58.275 43.7063 62.4375 48.5625 62.4375C53.4187 62.4375 57.35 58.275 57.8125 53.1875C55.2687 54.8062 52.0312 55.7313 48.5625 55.7313Z" stroke="#6B1D3A" stroke-width="2" stroke-miterlimit="10" stroke-linecap="round" stroke-linejoin="round"/>
<path d="M34.6875 46.25C34.6875 43.7062 36.7687 41.625 39.3125 41.625C41.8563 41.625 43.9375 43.7062 43.9375 46.25" stroke="#6B1D3A" stroke-width="2" stroke-miterlimit="10" stroke-linecap="round" stroke-linejoin="round"/>
<path d="M53.1875 46.25C53.1875 43.7062 55.2687 41.625 57.8125 41.625C60.3563 41.625 62.4375 43.7062 62.4375 46.25" stroke="#6B1D3A" stroke-width="2" stroke-miterlimit="10" stroke-linecap="round" stroke-linejoin="round"/>
<path d="M46.25 28.2125C47.8687 23.3562 48.5625 17.8062 48.5625 12.025C48.5625 8.7875 48.3313 5.55 47.6375 2.54375C40.7 4.39375 33.3 5.31875 25.4375 5.31875C17.575 5.31875 9.94375 4.1625 3.2375 2.3125C2.54375 5.31875 2.3125 8.55625 2.3125 11.7937C2.3125 32.1438 12.7188 48.5625 25.4375 48.5625C25.9 48.5625 26.5937 48.5625 27.0562 48.5625" stroke="#6B1D3A" stroke-width="2" stroke-miterlimit="10" stroke-linecap="round" stroke-linejoin="round"/>
<path d="M25.4375 34.4562C21.9688 34.4562 18.7313 35.3813 16.1875 37C16.65 31.9125 20.5813 27.75 25.4375 27.75" stroke="#6B1D3A" stroke-width="2" stroke-miterlimit="10" stroke-linecap="round" stroke-linejoin="round"/>
<path d="M11.5625 16.1875C11.5625 18.7313 13.6437 20.8125 16.1875 20.8125C18.7313 20.8125 20.8125 18.7313 20.8125 16.1875" stroke="#6B1D3A" stroke-width="2" stroke-miterlimit="10" stroke-linecap="round" stroke-linejoin="round"/>
<path d="M30.0625 16.1875C30.0625 18.7313 32.1437 20.8125 34.6875 20.8125C37.2313 20.8125 39.3125 18.7313 39.3125 16.1875" stroke="#6B1D3A" stroke-width="2" stroke-miterlimit="10" stroke-linecap="round" stroke-linejoin="round"/>
</svg>
