<svg width="70" height="70" viewBox="0 0 70 70" fill="none" xmlns="http://www.w3.org/2000/svg">
<path d="M35.0066 48.9498C42.0744 48.9498 47.8056 43.2207 47.8056 36.1507V12.8779C47.8056 5.81012 42.0744 0.0810547 35.0066 0.0810547C27.9387 0.0810547 22.2075 5.81012 22.2075 12.8779V36.1507C22.2075 43.2186 27.9387 48.9498 35.0066 48.9498ZM24.535 12.8801C24.535 7.1073 29.2316 2.41074 35.0066 2.41074C40.7816 2.41074 45.4781 7.1073 45.4781 12.8801V36.1529C45.4781 41.9279 40.7816 46.6245 35.0066 46.6245C29.2316 46.6245 24.535 41.9279 24.535 36.1529V12.8801Z" fill="#6B1D3A"/>
<path d="M52.4519 24.5151V36.1504C52.4519 45.7733 44.6228 53.6023 35 53.6023C25.3772 53.6023 17.5481 45.7733 17.5481 36.1504V24.5151H15.2206V36.1504C15.2206 46.7161 23.555 55.3479 33.9915 55.8773H33.8428V67.5892H23.3647V69.9167H46.6331V67.5892H36.1681V55.8773H36.0084C46.445 55.3458 54.7794 46.7139 54.7794 36.1504V24.5151H52.4519Z" fill="#6B1D3A"/>
</svg>
