<svg width="70" height="70" viewBox="0 0 70 70" fill="none" xmlns="http://www.w3.org/2000/svg">
<path d="M26.25 55.4167C26.25 58.6384 22.3325 61.25 17.5 61.25C12.6675 61.25 8.75 58.6384 8.75 55.4167C8.75 52.1949 12.6675 49.5833 17.5 49.5833C22.3325 49.5833 26.25 52.1949 26.25 55.4167ZM26.25 55.4167V14.5833L61.25 8.75V49.5833M61.25 49.5833C61.25 52.8051 57.3326 55.4167 52.5 55.4167C47.6674 55.4167 43.75 52.8051 43.75 49.5833C43.75 46.3616 47.6674 43.75 52.5 43.75C57.3326 43.75 61.25 46.3616 61.25 49.5833ZM26.25 26.25L61.25 20.4167" stroke="#6B1D3A" stroke-width="5" stroke-linecap="round" stroke-linejoin="round"/>
</svg>
